<svg xmlns="http://www.w3.org/2000/svg" version="1.1" xmlns:xlink="http://www.w3.org/1999/xlink" xmlns:svgjs="http://svgjs.dev/svgjs" viewBox="0 0 2400 800" opacity="0.28"><defs><linearGradient x1="50%" y1="0%" x2="50%" y2="100%" id="sssurf-grad"><stop stop-color="hsl(208, 77%, 50%)" stop-opacity="1" offset="0%"></stop><stop stop-color="hsl(208, 74%, 93%)" stop-opacity="1" offset="100%"></stop></linearGradient></defs><g fill="url(#sssurf-grad)" transform="matrix(1,0,0,1,-1.936279296875,-245.42737197875977)"><path d="M-10,10C158.75,9.166666666666666,464.58333333333337,7.666666666666666,800,6C1135.4166666666665,4.333333333333334,1266.6666666666665,1.7916666666666667,1600,2C1933.3333333333335,2.2083333333333335,2181.25,-75.91666666666666,2400,7C2618.75,89.91666666666666,3254.1666666666665,213.95833333333331,2650,400C2045.8333333333335,586.0416666666667,156.25,795.8333333333334,-500,900" transform="matrix(1,0,0,1,0,94)" opacity="0.05"></path><path d="M-10,10C158.75,9.166666666666666,464.58333333333337,7.666666666666666,800,6C1135.4166666666665,4.333333333333334,1266.6666666666665,1.7916666666666667,1600,2C1933.3333333333335,2.2083333333333335,2181.25,-75.91666666666666,2400,7C2618.75,89.91666666666666,3254.1666666666665,213.95833333333331,2650,400C2045.8333333333335,586.0416666666667,156.25,795.8333333333334,-500,900" transform="matrix(1,0,0,1,0,188)" opacity="0.14"></path><path d="M-10,10C158.75,9.166666666666666,464.58333333333337,7.666666666666666,800,6C1135.4166666666665,4.333333333333334,1266.6666666666665,1.7916666666666667,1600,2C1933.3333333333335,2.2083333333333335,2181.25,-75.91666666666666,2400,7C2618.75,89.91666666666666,3254.1666666666665,213.95833333333331,2650,400C2045.8333333333335,586.0416666666667,156.25,795.8333333333334,-500,900" transform="matrix(1,0,0,1,0,282)" opacity="0.22"></path><path d="M-10,10C158.75,9.166666666666666,464.58333333333337,7.666666666666666,800,6C1135.4166666666665,4.333333333333334,1266.6666666666665,1.7916666666666667,1600,2C1933.3333333333335,2.2083333333333335,2181.25,-75.91666666666666,2400,7C2618.75,89.91666666666666,3254.1666666666665,213.95833333333331,2650,400C2045.8333333333335,586.0416666666667,156.25,795.8333333333334,-500,900" transform="matrix(1,0,0,1,0,376)" opacity="0.31"></path><path d="M-10,10C158.75,9.166666666666666,464.58333333333337,7.666666666666666,800,6C1135.4166666666665,4.333333333333334,1266.6666666666665,1.7916666666666667,1600,2C1933.3333333333335,2.2083333333333335,2181.25,-75.91666666666666,2400,7C2618.75,89.91666666666666,3254.1666666666665,213.95833333333331,2650,400C2045.8333333333335,586.0416666666667,156.25,795.8333333333334,-500,900" transform="matrix(1,0,0,1,0,470)" opacity="0.40"></path><path d="M-10,10C158.75,9.166666666666666,464.58333333333337,7.666666666666666,800,6C1135.4166666666665,4.333333333333334,1266.6666666666665,1.7916666666666667,1600,2C1933.3333333333335,2.2083333333333335,2181.25,-75.91666666666666,2400,7C2618.75,89.91666666666666,3254.1666666666665,213.95833333333331,2650,400C2045.8333333333335,586.0416666666667,156.25,795.8333333333334,-500,900" transform="matrix(1,0,0,1,0,564)" opacity="0.48"></path><path d="M-10,10C158.75,9.166666666666666,464.58333333333337,7.666666666666666,800,6C1135.4166666666665,4.333333333333334,1266.6666666666665,1.7916666666666667,1600,2C1933.3333333333335,2.2083333333333335,2181.25,-75.91666666666666,2400,7C2618.75,89.91666666666666,3254.1666666666665,213.95833333333331,2650,400C2045.8333333333335,586.0416666666667,156.25,795.8333333333334,-500,900" transform="matrix(1,0,0,1,0,658)" opacity="0.57"></path><path d="M-10,10C158.75,9.166666666666666,464.58333333333337,7.666666666666666,800,6C1135.4166666666665,4.333333333333334,1266.6666666666665,1.7916666666666667,1600,2C1933.3333333333335,2.2083333333333335,2181.25,-75.91666666666666,2400,7C2618.75,89.91666666666666,3254.1666666666665,213.95833333333331,2650,400C2045.8333333333335,586.0416666666667,156.25,795.8333333333334,-500,900" transform="matrix(1,0,0,1,0,752)" opacity="0.65"></path><path d="M-10,10C158.75,9.166666666666666,464.58333333333337,7.666666666666666,800,6C1135.4166666666665,4.333333333333334,1266.6666666666665,1.7916666666666667,1600,2C1933.3333333333335,2.2083333333333335,2181.25,-75.91666666666666,2400,7C2618.75,89.91666666666666,3254.1666666666665,213.95833333333331,2650,400C2045.8333333333335,586.0416666666667,156.25,795.8333333333334,-500,900" transform="matrix(1,0,0,1,0,846)" opacity="0.74"></path><path d="M-10,10C158.75,9.166666666666666,464.58333333333337,7.666666666666666,800,6C1135.4166666666665,4.333333333333334,1266.6666666666665,1.7916666666666667,1600,2C1933.3333333333335,2.2083333333333335,2181.25,-75.91666666666666,2400,7C2618.75,89.91666666666666,3254.1666666666665,213.95833333333331,2650,400C2045.8333333333335,586.0416666666667,156.25,795.8333333333334,-500,900" transform="matrix(1,0,0,1,0,940)" opacity="0.83"></path><path d="M-10,10C158.75,9.166666666666666,464.58333333333337,7.666666666666666,800,6C1135.4166666666665,4.333333333333334,1266.6666666666665,1.7916666666666667,1600,2C1933.3333333333335,2.2083333333333335,2181.25,-75.91666666666666,2400,7C2618.75,89.91666666666666,3254.1666666666665,213.95833333333331,2650,400C2045.8333333333335,586.0416666666667,156.25,795.8333333333334,-500,900" transform="matrix(1,0,0,1,0,1034)" opacity="0.91"></path><path d="M-10,10C158.75,9.166666666666666,464.58333333333337,7.666666666666666,800,6C1135.4166666666665,4.333333333333334,1266.6666666666665,1.7916666666666667,1600,2C1933.3333333333335,2.2083333333333335,2181.25,-75.91666666666666,2400,7C2618.75,89.91666666666666,3254.1666666666665,213.95833333333331,2650,400C2045.8333333333335,586.0416666666667,156.25,795.8333333333334,-500,900" transform="matrix(1,0,0,1,0,1128)" opacity="1.00"></path></g></svg>